<svg width="25" height="25" viewBox="0 0 25 25" fill="none" xmlns="http://www.w3.org/2000/svg">
<path d="M1.50002 4.00001C1.36751 3.99813 1.23595 4.02262 1.11298 4.07203C0.99001 4.12144 0.878089 4.1948 0.783719 4.28785C0.68935 4.38089 0.614413 4.49177 0.563266 4.61402C0.512118 4.73628 0.485779 4.86748 0.485779 5.00001C0.485779 5.13253 0.512118 5.26374 0.563266 5.38599C0.614413 5.50825 0.68935 5.61912 0.783719 5.71217C0.878089 5.80521 0.99001 5.87857 1.11298 5.92799C1.23595 5.9774 1.36751 6.00188 1.50002 6.00001H23.5C23.6325 6.00188 23.7641 5.9774 23.8871 5.92799C24.01 5.87857 24.122 5.80521 24.2163 5.71217C24.3107 5.61912 24.3856 5.50825 24.4368 5.38599C24.4879 5.26374 24.5143 5.13253 24.5143 5.00001C24.5143 4.86748 24.4879 4.73628 24.4368 4.61402C24.3856 4.49177 24.3107 4.38089 24.2163 4.28785C24.122 4.1948 24.01 4.12144 23.8871 4.07203C23.7641 4.02262 23.6325 3.99813 23.5 4.00001H1.50002ZM1.50002 11.5C1.36751 11.4981 1.23595 11.5226 1.11298 11.572C0.99001 11.6214 0.878089 11.6948 0.783719 11.7878C0.68935 11.8809 0.614413 11.9918 0.563266 12.114C0.512118 12.2363 0.485779 12.3675 0.485779 12.5C0.485779 12.6325 0.512118 12.7637 0.563266 12.886C0.614413 13.0083 0.68935 13.1191 0.783719 13.2122C0.878089 13.3052 0.99001 13.3786 1.11298 13.428C1.23595 13.4774 1.36751 13.5019 1.50002 13.5H23.5C23.6325 13.5019 23.7641 13.4774 23.8871 13.428C24.01 13.3786 24.122 13.3052 24.2163 13.2122C24.3107 13.1191 24.3856 13.0083 24.4368 12.886C24.4879 12.7637 24.5143 12.6325 24.5143 12.5C24.5143 12.3675 24.4879 12.2363 24.4368 12.114C24.3856 11.9918 24.3107 11.8809 24.2163 11.7878C24.122 11.6948 24.01 11.6214 23.8871 11.572C23.7641 11.5226 23.6325 11.4981 23.5 11.5H1.50002ZM1.50002 19C1.36751 18.9981 1.23595 19.0226 1.11298 19.072C0.99001 19.1214 0.878089 19.1948 0.783719 19.2878C0.68935 19.3809 0.614413 19.4918 0.563266 19.614C0.512118 19.7363 0.485779 19.8675 0.485779 20C0.485779 20.1325 0.512118 20.2637 0.563266 20.386C0.614413 20.5083 0.68935 20.6191 0.783719 20.7122C0.878089 20.8052 0.99001 20.8786 1.11298 20.928C1.23595 20.9774 1.36751 21.0019 1.50002 21H23.5C23.6325 21.0019 23.7641 20.9774 23.8871 20.928C24.01 20.8786 24.122 20.8052 24.2163 20.7122C24.3107 20.6191 24.3856 20.5083 24.4368 20.386C24.4879 20.2637 24.5143 20.1325 24.5143 20C24.5143 19.8675 24.4879 19.7363 24.4368 19.614C24.3856 19.4918 24.3107 19.3809 24.2163 19.2878C24.122 19.1948 24.01 19.1214 23.8871 19.072C23.7641 19.0226 23.6325 18.9981 23.5 19H1.50002Z" fill="white"/>
</svg>
