<svg width="22" height="22" viewBox="0 0 22 22" fill="none" xmlns="http://www.w3.org/2000/svg">
<g clip-path="url(#clip0_2002_49)">
<path d="M16.5917 7.65418L13.2917 10.175C13.0625 10.3583 12.7417 10.3583 12.5125 10.175L10.0375 8.34168C9.30418 7.79168 8.25001 7.97501 7.74584 8.75418L4.62918 13.6583C4.30834 14.1167 4.90418 14.6667 5.36251 14.3458L8.70834 11.825C8.93751 11.6417 9.25834 11.6417 9.48751 11.825L11.9625 13.6583C12.6958 14.2083 13.75 14.025 14.2542 13.2458L17.3708 8.34168C17.6458 7.83751 17.05 7.33334 16.5917 7.65418ZM11 0.458344C5.04168 0.458344 0.458344 4.81251 0.458344 10.6792C0.458344 13.75 1.69584 16.4083 3.75834 18.2417C3.94168 18.3792 4.03334 18.6083 4.03334 18.8375L4.12501 20.7167C4.12501 21.175 4.53751 21.5417 4.95001 21.5417C5.04168 21.5417 5.17918 21.5417 5.27084 21.45L7.37918 20.5333C7.47084 20.4875 7.60834 20.4417 7.70001 20.4417C7.79168 20.4417 7.83751 20.4417 7.92918 20.4875C8.89168 20.7625 9.90001 20.9 11 20.9C16.9583 20.9 21.5417 16.5458 21.5417 10.6792C21.5417 4.81251 16.9583 0.458344 11 0.458344ZM11 19.525C10.0833 19.525 9.16668 19.3875 8.29584 19.1583C8.11251 19.1125 7.92918 19.0667 7.70001 19.0667C7.37918 19.0667 7.10418 19.1125 6.78334 19.25L5.40834 19.8458V18.7917C5.40834 18.1958 5.13334 17.6458 4.67501 17.2333C2.84168 15.5833 1.83334 13.2458 1.83334 10.6792C1.83334 5.63751 5.77501 1.83334 11 1.83334C16.225 1.83334 20.1667 5.63751 20.1667 10.6792C20.1667 15.7208 16.225 19.525 11 19.525Z" fill="white"/>
</g>
<defs>
<clipPath id="clip0_2002_49">
<rect width="22" height="22" fill="white"/>
</clipPath>
</defs>
</svg>
