<svg width="21" height="21" viewBox="0 0 21 21" fill="none" xmlns="http://www.w3.org/2000/svg">
<g clip-path="url(#clip0_2003_2)">
<path d="M6.04176 0H14.9582C16.6174 0 18.127 0.676758 19.2222 1.76367C20.3191 2.85229 21 4.35449 21 6.00537V14.9963C21 16.6438 20.3191 18.1443 19.2256 19.2329L19.2222 19.2363C18.1253 20.325 16.6157 21 14.96 21H6.04176C4.38087 21 2.86958 20.3232 1.77436 19.2363L1.73309 19.1902C0.663665 18.1067 0 16.6233 0 14.9946V6.00537C0 4.35278 0.679139 2.85229 1.77436 1.76367C2.86958 0.675049 4.37915 0 6.04176 0ZM15.7337 5.30127L15.7457 5.32007H19.4595C19.3099 4.34937 18.8439 3.47778 18.1734 2.80957C17.3481 1.98926 16.2099 1.47998 14.9582 1.47998H13.4332L15.7337 5.30127ZM14.016 5.32007L11.7035 1.47998H6.63149L8.97151 5.32007H14.016ZM7.24013 5.32007L4.97748 1.60474C4.15048 1.80298 3.40945 2.22852 2.82659 2.80957C2.15605 3.47607 1.69183 4.34937 1.54053 5.32007H7.24013ZM19.5111 6.80005H1.48895V14.9963C1.48895 16.2217 1.98584 17.3376 2.78877 18.1545L2.82659 18.1904C3.65187 19.0107 4.7918 19.5217 6.04176 19.5217H14.9582C16.2099 19.5217 17.3481 19.0125 18.1717 18.1938L18.1751 18.1904C18.9987 17.3718 19.5111 16.2405 19.5111 14.9963V6.80005ZM8.76003 9.39087L13.373 12.373C13.4469 12.4209 13.514 12.4824 13.5673 12.5576C13.7771 12.8601 13.6997 13.2754 13.3954 13.4839L8.80129 16.179C8.6861 16.2729 8.53823 16.3293 8.3749 16.3293C8.00352 16.3293 7.70264 16.0303 7.70264 15.6611V9.93774H7.70607C7.70607 9.80615 7.74562 9.67285 7.82643 9.55664C8.03963 9.25415 8.45743 9.18066 8.76003 9.39087Z" fill="white"/>
</g>
<defs>
<clipPath id="clip0_2003_2">
<rect width="21" height="21" fill="white"/>
</clipPath>
</defs>
</svg>
